<?xml version="1.0" encoding="iso-8859-1"?>
<!-- Generator: Adobe Illustrator 19.0.0, SVG Export Plug-In . SVG Version: 6.00 Build 0)  -->
<svg version="1.1" id="Capa_1" xmlns="http://www.w3.org/2000/svg" xmlns:xlink="http://www.w3.org/1999/xlink" x="0px" y="0px"
	 viewBox="0 0 496.941 496.941" style="enable-background:new 0 0 496.941 496.941;" xml:space="preserve">
<path d="M146.824,133.647H54.965C24.847,133.647,0,161.506,0,196.141v156.612c0,4.518,3.012,7.529,7.529,7.529h32.376v110.682
				c0,14.306,11.294,25.6,25.6,25.6h71.529c14.306,0,25.6-11.294,25.6-25.6V361.035h32.376c4.518,0,7.529-3.012,7.529-7.529V196.141
				C202.541,161.506,177.694,133.647,146.824,133.647z M187.482,345.976h-24.847v-79.812c0-4.518-3.012-7.529-7.529-7.529
				s-7.529,3.012-7.529,7.529v205.553c0,6.023-4.518,10.541-10.541,10.541h-28.612V358.776c0-4.518-3.012-7.529-7.529-7.529
				s-7.529,3.012-7.529,7.529v123.482H65.506c-6.023,0-10.541-4.518-10.541-10.541V266.165c0-4.518-3.012-7.529-7.529-7.529
				s-7.529,3.012-7.529,7.529v79.812H15.059V196.141c0-26.353,18.071-47.435,39.906-47.435h91.859
				c22.588,0,40.659,21.082,40.659,47.435V345.976z"/>
<path d="M100.894,123.859c33.882,0,61.741-27.859,61.741-61.741c0-33.882-27.859-61.741-61.741-61.741
				c-33.882,0-60.988,27.859-60.988,61.741C39.906,96,67.012,123.859,100.894,123.859z M100.894,15.435
				c25.6,0,46.682,21.082,46.682,46.682c0,25.6-21.082,46.682-46.682,46.682c-25.6,0-46.682-21.082-46.682-46.682
				C54.965,36.518,75.294,15.435,100.894,15.435z"/>
<path d="M408.847,217.224c3.765,21.082,21.835,36.894,43.671,36.894c24.847,0,44.424-19.576,44.424-44.424
				c0-24.847-20.329-44.424-44.424-44.424c-21.835,0-39.906,15.812-43.671,36.894h-82.824V98.259h82.824
				c3.765,21.082,21.835,36.894,43.671,36.894c24.847,0,44.424-19.576,44.424-44.424c0-24.847-20.329-44.424-44.424-44.424
				c-21.835,0-39.906,15.812-43.671,36.894h-90.353c-4.518,0-7.529,3.012-7.529,7.529v170.165h-30.871v-81.318
				c0-4.518-3.012-7.529-7.529-7.529h-47.435c-4.518,0-7.529,3.012-7.529,7.529c0,4.518,3.012,7.529,7.529,7.529h39.906v162.635
				h-39.906c-4.518,0-7.529,3.012-7.529,7.529s3.012,7.529,7.529,7.529h47.435c4.518,0,7.529-3.012,7.529-7.529v-81.318h30.871
				v170.918c0,4.518,3.012,7.529,7.529,7.529h90.353c3.765,21.082,21.835,36.894,43.671,36.894
				c24.847,0,44.424-19.576,44.424-44.424s-20.329-44.424-44.424-44.424c-21.835,0-39.906,15.812-43.671,36.894h-82.824V335.435
				h82.824c3.765,21.082,21.835,36.894,43.671,36.894c24.847,0,44.424-19.576,44.424-44.424c0-24.847-20.329-44.424-44.424-44.424
				c-21.835,0-39.906,15.812-43.671,36.894h-82.824V217.224H408.847z M452.518,180.329c16.565,0,29.365,12.8,29.365,29.365
				s-13.553,29.365-29.365,29.365c-16.565,0-29.365-12.8-29.365-29.365S435.953,180.329,452.518,180.329z M452.518,61.365
				c16.565,0,29.365,12.8,29.365,29.365c0,16.565-13.553,29.365-29.365,29.365c-16.565,0-29.365-12.8-29.365-29.365
				C423.153,74.165,435.953,61.365,452.518,61.365z M452.518,417.506c16.565,0,29.365,12.8,29.365,29.365
				s-13.553,29.365-29.365,29.365c-16.565,0-29.365-12.8-29.365-29.365S435.953,417.506,452.518,417.506z M452.518,298.541
				c16.565,0,29.365,12.8,29.365,29.365s-13.553,29.365-29.365,29.365c-16.565,0-29.365-12.8-29.365-29.365
				S435.953,298.541,452.518,298.541z"/>
</svg>
