<svg height="512pt" viewBox="0 -40 512 512" width="512pt" xmlns="http://www.w3.org/2000/svg"><path d="m462.132812 82.414062h-76.847656v-21.566406c0-11.699218-9.519531-21.21875-21.21875-21.21875h-12.894531v-4.636718c0-19.292969-15.699219-34.992188-34.996094-34.992188h-120.355469c-19.292968 0-34.992187 15.699219-34.992187 34.992188v4.636718h-12.855469c-11.699218 0-21.21875 9.519532-21.21875 21.21875v21.566406h-76.886718c-27.496094 0-49.867188 22.371094-49.867188 49.867188v248.3125c0 28.554688 23.230469 51.785156 51.785156 51.785156h408.429688c28.554687 0 51.785156-23.230468 51.785156-51.785156v-248.3125c0-27.496094-22.371094-49.867188-49.867188-49.867188zm-96.847656-21.566406v21.5625h-48.226562v-21.5625c0-.671875.546875-1.21875 1.21875-1.21875h45.789062c.671875 0 1.21875.546875 1.21875 1.21875zm-184.457031-25.855468c0-8.265626 6.726563-14.992188 14.992187-14.992188h120.355469c8.269531 0 14.996094 6.726562 14.996094 14.992188v4.636718h-12.898437c-11.699219 0-21.21875 9.519532-21.21875 21.21875v21.566406h-82.074219v-21.566406c0-11.699218-9.515625-21.21875-21.21875-21.21875h-12.9375v-4.636718zm-34.074219 25.855468c0-.671875.546875-1.21875 1.222656-1.21875h45.789063c.671875 0 1.21875.546875 1.21875 1.21875v21.5625h-48.230469zm313.460938 351.53125h-408.429688c-17.527344 0-31.785156-14.257812-31.785156-31.785156v-157.128906l174.984375 54.070312v12.144532c0 11.550781 5.476563 22.640624 14.648437 29.660156l27.171876 20.800781c5.648437 4.324219 12.421874 6.488281 19.195312 6.488281 6.769531 0 13.542969-2.164062 19.195312-6.488281l27.171876-20.800781c9.171874-7.019532 14.648437-18.109375 14.648437-29.660156v-12.140626l54.621094-16.882812c5.277343-1.628906 8.234375-7.226562 6.605469-12.503906-1.632813-5.277344-7.230469-8.234375-12.507813-6.605469l-48.71875 15.054687v-7.175781c0-15.445312-12.566406-28.007812-28.007813-28.007812h-66.019531c-15.441406 0-28.007812 12.5625-28.007812 28.007812v7.179688l-174.980469-54.074219v-70.25c0-16.46875 13.398438-29.867188 29.867188-29.867188h412.265624c16.46875 0 29.867188 13.398438 29.867188 29.867188v70.25l-45.285156 13.992188c-5.277344 1.632812-8.230469 7.230468-6.601563 12.507812 1.628907 5.277344 7.226563 8.234375 12.503907 6.601562l39.382812-12.167968v157.128906c0 17.527344-14.257812 31.785156-31.785156 31.785156zm-163.199219-122.699218c0 5.367187-2.542969 10.515624-6.804687 13.78125l-27.171876 20.796874c-4.144531 3.175782-9.933593 3.171876-14.078124 0l-27.171876-20.796874c-4.261718-3.265626-6.804687-8.414063-6.804687-13.78125v-19.285157c.003906-.152343 0-.304687 0-.453125v-20.515625c0-4.414062 3.589844-8.007812 8.007813-8.007812h66.015624c4.417969 0 8.007813 3.59375 8.007813 8.007812zm0 0"/><path d="m408.738281 228.726562c-5.519531 0-10 4.476563-10 10 0 5.519532 4.480469 10 10 10h.027344c5.519531 0 9.988281-4.480468 9.988281-10 0-5.523437-4.492187-10-10.015625-10zm0 0"/></svg>