<svg xmlns="http://www.w3.org/2000/svg" style="display:none"><symbol id="about" viewBox="-35 1 511 511.999"><path d="M271.05 180c5.52 0 10-4.48 10-10s-4.48-10-10-10c-5.53 0-10 4.48-10 10s4.47 10 10 10zm0 0M171.05 180c5.52 0 10-4.48 10-10s-4.48-10-10-10c-5.53 0-10 4.48-10 10s4.47 10 10 10zm0 0M194.316 248.734c8.395 3.957 17.391 5.965 26.73 5.965 9.138 0 17.958-1.926 26.22-5.722 5.02-2.309 7.214-8.247 4.91-13.266-2.309-5.016-8.246-7.215-13.266-4.906a42.502 42.502 0 0 1-17.863 3.894c-6.371 0-12.496-1.363-18.203-4.054-4.996-2.356-10.957-.215-13.309 4.78-2.355 4.997-.215 10.954 4.781 13.31zm0 0"/><path d="M441.59 405.77c0-54.989-62.625-98.114-116.305-100.157l-27.387-24.605C331.254 256.672 351.5 217.562 351.5 176v-66c0-60.652-49.504-110-110.352-110h-40C140.383 0 91.5 49.172 91.5 110v66c0 41.492 19.977 80.527 52.898 104.82l-27.593 24.793C63.242 307.653.5 350.668.5 405.77V502c0 5.523 4.477 10 10 10h421.09c5.523 0 10-4.477 10-10zM198.895 446h44.246l10.484 46h-65.52zM244 426h-45.738l-7.672-23.902 30.46-15.23 31.114 15.562zm-22.953-69.18l-34.75-55.59a130.176 130.176 0 0 0 34.851 4.766c11.727 0 23.368-1.598 34.594-4.684zm14.312 14.844l48.012-76.824 25.895 23.265-32.95 74.043zM201.15 20h40c49.82 0 90.351 40.371 90.351 90v8.266l-18.777-27.04a10 10 0 0 0-15.364-1.288C277.031 110.727 253.496 120 221.051 120c-32.442 0-55.98-9.273-76.324-30.063a9.994 9.994 0 0 0-8.024-2.968 9.989 9.989 0 0 0-7.383 4.324l-17.82 26.113V110c0-49.629 40.215-90 89.648-90zM111.5 176v-23.113l27.773-40.7C161.523 131.113 187.816 140 221.051 140c33.27 0 59.582-8.906 81.836-27.871l28.613 41.203V176c0 59.887-48.95 110-110.352 110-61.203 0-109.648-49.957-109.648-110zm47.219 118.844l48.02 76.82-40.966 20.484-32.949-74.043zM20.5 405.77c0-41.196 50.078-76.766 93.84-80l37.414 84.066c1.11 2.492 3.191 4.426 5.762 5.348s5.402.75 7.847-.47l7.125-3.566 8.114 25.266L167.562 492H20.5zM421.59 492H274.137l-12.633-55.434 8.7-25.117 6.523 3.266a10.003 10.003 0 0 0 13.609-4.88l37.414-84.065c43.762 3.238 93.84 38.804 93.84 80zm0 0"/><path d="M351.05 446h-40c-5.523 0-10 4.477-10 10s4.477 10 10 10h40c5.524 0 10-4.477 10-10s-4.476-10-10-10zm0 0M390.5 446c5.52 0 10 4.48 10 10s-4.48 10-10 10-10-4.48-10-10 4.48-10 10-10zm0 0"/></symbol><symbol id="google-plus" viewBox="0 0 512 512"><g fill="#7a7a7a"><path d="M430.975 512h-37.449c-7.952 0-14.401-6.447-14.401-14.401 0-7.953 6.449-14.401 14.401-14.401h37.449c27.604 0 50.064-22.459 50.064-50.064V83.186c0-27.604-22.459-50.064-50.064-50.064H214.718c-7.952 0-14.401-6.447-14.401-14.401S206.766 4.32 214.718 4.32h216.257c43.485 0 78.865 35.378 78.865 78.865v349.949c0 43.488-35.379 78.866-78.865 78.866zM289.409 507.68H81.025c-43.485 0-78.865-35.378-78.865-78.865V78.865C2.16 35.378 37.539 0 81.025 0h32.408c7.952 0 14.401 6.447 14.401 14.401s-6.449 14.401-14.401 14.401H81.025c-27.604 0-50.064 22.459-50.064 50.064v349.949c0 27.604 22.459 50.064 50.064 50.064H289.41c7.952 0 14.401 6.447 14.401 14.401s-6.448 14.4-14.402 14.4z"/></g><path d="M207.074 373.74c-64.926 0-117.748-52.823-117.748-117.749 0-64.918 52.821-117.733 117.748-117.733 26.64 0 51.036 8.05 70.553 23.278 4.172 3.253 5.926 9.023 3.738 14.406-.635 1.561-1.643 2.946-2.835 4.137l-18.554 18.554c-2.241 2.241-5.189 3.741-8.354 3.914-2.892.157-5.662-.675-7.959-2.382-9.965-7.4-22.617-11.312-36.589-11.312-35.548 0-65.579 30.745-65.579 67.137 0 36.528 29.419 66.245 65.579 66.245 46.525 0 56.897-37.061 56.897-37.061h-26.694c-6.807 0-12.327-5.518-12.327-12.327v-17.646c0-6.807 5.518-12.325 12.325-12.325h56.843c13.668 0 24.842 11.192 24.842 24.86 0 37.585-17.533 64.648-37.752 81.285-19.651 16.173-39.609 24.719-74.134 24.719z" fill="#f1f1f1"/><g fill="#7a7a7a"><path d="M207.073 388.141c-72.867 0-132.148-59.283-132.148-132.15 0-72.858 59.281-132.134 132.148-132.134 29.881 0 57.342 9.104 79.413 26.326 9.339 7.284 12.721 20.106 8.22 31.182-1.316 3.242-3.331 6.235-5.989 8.895l-18.557 18.557c-4.875 4.872-11.179 7.752-17.753 8.11-6.299.34-12.32-1.48-17.328-5.2-7.465-5.543-17.148-8.473-28.005-8.473-27.741 0-51.178 24.151-51.178 52.736 0 28.588 22.957 51.845 51.178 51.845 13.161 0 22.482-3.672 29.004-8.286-14.183-.629-25.528-12.364-25.528-26.7v-17.646c0-14.738 11.99-26.727 26.727-26.727h56.843c21.638 0 39.243 17.612 39.243 39.26 0 49.614-26.943 79.19-43.003 92.405-24.169 19.888-48.298 28-83.287 28zm0-235.481c-56.984 0-103.347 46.354-103.347 103.333 0 56.986 46.361 103.348 103.347 103.348 32.421 0 48.903-8.203 64.985-21.438 12.14-9.988 32.502-32.384 32.502-70.165 0-5.767-4.685-10.459-10.442-10.459H239.35v13.499h24.621a14.4 14.4 0 0 1 13.868 18.281c-4.605 16.457-25.322 47.581-70.766 47.581-44.1 0-79.979-36.178-79.979-80.646 0-44.198 36.626-81.537 79.979-81.537 16.402 0 31.452 4.509 43.66 13.058l16.095-16.094c-16.637-12.283-37.24-18.761-59.755-18.761zM392.072 301.002c-7.952 0-14.401-6.447-14.401-14.401v-61.202c0-7.953 6.449-14.401 14.401-14.401s14.401 6.447 14.401 14.401v61.202c0 7.954-6.447 14.401-14.401 14.401z"/><path d="M422.673 270.401h-61.202c-7.952 0-14.401-6.447-14.401-14.401 0-7.953 6.449-14.401 14.401-14.401h61.202c7.952 0 14.401 6.447 14.401 14.401 0 7.953-6.447 14.401-14.401 14.401z"/></g></symbol><symbol id="profile" viewBox="-24 0 496 496"><path d="M16 48h240v56c0 4.426 3.574 8 8 8h56v64h16v-72a7.986 7.986 0 0 0-2.352-5.664l-63.976-63.977A7.992 7.992 0 0 0 264 32H48V16h304v176h16V8c0-4.426-3.574-8-8-8H40a7.99 7.99 0 0 0-8 8v24H8a7.99 7.99 0 0 0-8 8v448c0 4.426 3.574 8 8 8h272v-16H16zm256 11.313L308.688 96H272zm0 0"/><path d="M440 240h-12.047c-35.723 0-69.32-15.734-92.183-43.168l-1.618-1.945c-3.03-3.657-9.265-3.657-12.297 0l-1.617 1.937C297.368 224.266 263.77 240 228.047 240H216a7.99 7.99 0 0 0-8 8v129.566c0 31.504 16.992 60.786 44.344 76.41l71.687 40.97a7.988 7.988 0 0 0 7.938 0l71.687-40.97C431.008 438.353 448 409.07 448 377.567V248c0-4.426-3.574-8-8-8zm-8 137.566c0 25.778-13.895 49.73-36.281 62.512L328 478.793l-67.719-38.703C237.895 427.297 224 403.344 224 377.566V256h4.047c38.176 0 74.226-15.863 99.953-43.77 25.719 27.907 61.777 43.77 99.953 43.77H432zm0 0"/><path d="M328 264c-48.52 0-88 39.48-88 88s39.48 88 88 88 88-39.48 88-88-39.48-88-88-88zm0 160c-39.703 0-72-32.297-72-72s32.297-72 72-72 72 32.297 72 72-32.297 72-72 72zm0 0"/><path d="M324.184 376.871l-14.528-14.527-11.312 11.312 24 24A7.98 7.98 0 0 0 328 400c.648 0 1.305-.078 1.953-.238a8.028 8.028 0 0 0 5.711-5.465l24-80-15.328-4.594zm0 0M32 128h208v16H32zm0 0M32 160h208v16H32zm0 0M32 192h208v16H32zm0 0M32 224h160v16H32zm0 0M32 256h160v16H32zm0 0M32 288h160v16H32zm0 0M32 384h160v16H32zm0 0M32 416h160v16H32zm0 0M32 448h160v16H32zm0 0M40 64h16v16H40zm0 0M72 64h16v16H72zm0 0M104 64h16v16h-16zm0 0M136 64h104v16H136zm0 0"/></symbol><symbol id="skills" viewBox="0 0 496.941 496.941"><path d="M146.824 133.647H54.965C24.847 133.647 0 161.506 0 196.141v156.612c0 4.518 3.012 7.529 7.529 7.529h32.376v110.682c0 14.306 11.294 25.6 25.6 25.6h71.529c14.306 0 25.6-11.294 25.6-25.6V361.035h32.376c4.518 0 7.529-3.012 7.529-7.529V196.141c.002-34.635-24.845-62.494-55.715-62.494zm40.658 212.329h-24.847v-79.812c0-4.518-3.012-7.529-7.529-7.529s-7.529 3.012-7.529 7.529v205.553c0 6.023-4.518 10.541-10.541 10.541h-28.612V358.776c0-4.518-3.012-7.529-7.529-7.529s-7.529 3.012-7.529 7.529v123.482h-27.86c-6.023 0-10.541-4.518-10.541-10.541V266.165c0-4.518-3.012-7.529-7.529-7.529s-7.529 3.012-7.529 7.529v79.812H15.059V196.141c0-26.353 18.071-47.435 39.906-47.435h91.859c22.588 0 40.659 21.082 40.659 47.435v149.835zM100.894 123.859c33.882 0 61.741-27.859 61.741-61.741S134.776.377 100.894.377 39.906 28.236 39.906 62.118s27.106 61.741 60.988 61.741zm0-108.424c25.6 0 46.682 21.082 46.682 46.682s-21.082 46.682-46.682 46.682-46.682-21.082-46.682-46.682c.753-25.599 21.082-46.682 46.682-46.682zM408.847 217.224c3.765 21.082 21.835 36.894 43.671 36.894 24.847 0 44.424-19.576 44.424-44.424 0-24.847-20.329-44.424-44.424-44.424-21.835 0-39.906 15.812-43.671 36.894h-82.824V98.259h82.824c3.765 21.082 21.835 36.894 43.671 36.894 24.847 0 44.424-19.576 44.424-44.424 0-24.847-20.329-44.424-44.424-44.424-21.835 0-39.906 15.812-43.671 36.894h-90.353c-4.518 0-7.529 3.012-7.529 7.529v170.165h-30.871v-81.318c0-4.518-3.012-7.529-7.529-7.529H225.13c-4.518 0-7.529 3.012-7.529 7.529 0 4.518 3.012 7.529 7.529 7.529h39.906v162.635H225.13c-4.518 0-7.529 3.012-7.529 7.529s3.012 7.529 7.529 7.529h47.435c4.518 0 7.529-3.012 7.529-7.529V275.95h30.871v170.918c0 4.518 3.012 7.529 7.529 7.529h90.353c3.765 21.082 21.835 36.894 43.671 36.894 24.847 0 44.424-19.576 44.424-44.424s-20.329-44.424-44.424-44.424c-21.835 0-39.906 15.812-43.671 36.894h-82.824V335.435h82.824c3.765 21.082 21.835 36.894 43.671 36.894 24.847 0 44.424-19.576 44.424-44.424 0-24.847-20.329-44.424-44.424-44.424-21.835 0-39.906 15.812-43.671 36.894h-82.824V217.224h82.824zm43.671-36.895c16.565 0 29.365 12.8 29.365 29.365s-13.553 29.365-29.365 29.365c-16.565 0-29.365-12.8-29.365-29.365s12.8-29.365 29.365-29.365zm0-118.964c16.565 0 29.365 12.8 29.365 29.365 0 16.565-13.553 29.365-29.365 29.365-16.565 0-29.365-12.8-29.365-29.365 0-16.565 12.8-29.365 29.365-29.365zm0 356.141c16.565 0 29.365 12.8 29.365 29.365s-13.553 29.365-29.365 29.365c-16.565 0-29.365-12.8-29.365-29.365s12.8-29.365 29.365-29.365zm0-118.965c16.565 0 29.365 12.8 29.365 29.365s-13.553 29.365-29.365 29.365c-16.565 0-29.365-12.8-29.365-29.365s12.8-29.365 29.365-29.365z"/></symbol><symbol id="suitcase" viewBox="0 -40 512 512"><path d="M462.133 82.414h-76.848V60.848c0-11.7-9.52-21.22-21.219-21.22h-12.894v-4.636C351.172 15.7 335.472 0 316.176 0H195.82c-19.293 0-34.992 15.7-34.992 34.992v4.637h-12.855c-11.7 0-21.22 9.52-21.22 21.219v21.566H49.868C22.371 82.414 0 104.785 0 132.281v248.313c0 28.554 23.23 51.785 51.785 51.785h408.43c28.555 0 51.785-23.23 51.785-51.785V132.28c0-27.496-22.371-49.867-49.867-49.867zm-96.848-21.566V82.41H317.06V60.848a1.22 1.22 0 0 1 1.218-1.22h45.79a1.22 1.22 0 0 1 1.218 1.22zM180.828 34.992c0-8.265 6.727-14.992 14.992-14.992h120.356c8.27 0 14.996 6.727 14.996 14.992v4.637h-12.899c-11.699 0-21.218 9.52-21.218 21.219v21.566H214.98V60.848c0-11.7-9.515-21.22-21.218-21.22h-12.938v-4.636zm-34.074 25.856c0-.672.547-1.22 1.223-1.22h45.789a1.22 1.22 0 0 1 1.218 1.22V82.41h-48.23zm313.46 351.53H51.786C34.258 412.379 20 398.122 20 380.595v-157.13l174.984 54.071v12.145c0 11.55 5.477 22.64 14.649 29.66l27.172 20.8A31.538 31.538 0 0 0 256 346.63c6.77 0 13.543-2.164 19.195-6.488l27.172-20.801c9.172-7.02 14.649-18.11 14.649-29.66v-12.14l54.62-16.884c5.278-1.629 8.235-7.226 6.606-12.504-1.633-5.277-7.23-8.234-12.508-6.605l-48.718 15.055v-7.176c0-15.446-12.567-28.008-28.008-28.008h-66.02c-15.441 0-28.008 12.562-28.008 28.008v7.18L20 202.53v-70.25c0-16.468 13.398-29.867 29.867-29.867h412.266c16.469 0 29.867 13.399 29.867 29.867v70.25l-45.285 13.992c-5.278 1.633-8.23 7.23-6.602 12.508 1.63 5.278 7.227 8.235 12.504 6.602L492 223.465v157.129c0 17.527-14.258 31.785-31.785 31.785zM297.017 289.68c0 5.367-2.543 10.515-6.805 13.78l-27.172 20.798c-4.144 3.176-9.934 3.172-14.078 0l-27.172-20.797c-4.262-3.266-6.805-8.414-6.805-13.781v-19.285c.004-.153 0-.305 0-.454v-20.515c0-4.414 3.59-8.008 8.008-8.008h66.016c4.418 0 8.008 3.594 8.008 8.008zm0 0"/><path d="M408.738 228.727c-5.52 0-10 4.476-10 10 0 5.52 4.48 10 10 10h.028c5.52 0 9.988-4.48 9.988-10 0-5.524-4.492-10-10.016-10zm0 0"/></symbol><symbol id="telegram" viewBox="0 0 512 512"><g fill="#7a7a7a"><path d="M432.464 512h-37.766c-8.021 0-14.523-6.502-14.523-14.523s6.502-14.523 14.523-14.523h37.766c27.839 0 50.49-22.65 50.49-50.49V79.536c0-27.839-22.65-50.49-50.49-50.49H214.367c-8.021 0-14.523-6.502-14.523-14.523S206.346 0 214.367 0h218.097C476.321 0 512 35.679 512 79.536v352.928C512 476.321 476.321 512 432.464 512zM289.693 512H79.536C35.679 512 0 476.321 0 432.464V79.536C0 35.679 35.679 0 79.536 0h32.684c8.021 0 14.523 6.502 14.523 14.523s-6.502 14.523-14.523 14.523H79.536c-27.839 0-50.49 22.65-50.49 50.49v352.928c0 27.839 22.65 50.49 50.49 50.49h210.157c8.021 0 14.523 6.502 14.523 14.523S297.714 512 289.693 512z"/></g><path d="M397.094 120.693l-296.09 115.385c-9.593 3.738-9.009 17.5.864 20.412l67.633 19.969 21.022 78.715c2.932 9.308 14.725 12.127 21.552 5.157l41.623-39.722 88.273 68.661c9.341 6.856 22.643 1.76 25.015-9.578l50.552-241.69c2.475-11.84-9.172-21.702-20.444-17.309z" fill="#f1f1f1"/><g fill="#7a7a7a"><path d="M351.348 406.895h-.001c-6.483 0-12.698-2.046-17.969-5.915-.109-.08-.216-.161-.322-.244l-78.389-60.974-32.42 30.94c-5.185 5.188-12.047 8.04-19.356 8.04-12.064 0-22.601-7.716-26.219-19.202-.064-.205-.125-.41-.18-.617l-18.918-70.841-59.818-17.662c-10.545-3.112-17.663-12.223-18.128-23.209-.466-10.988 5.856-20.669 16.105-24.663l296.09-115.385a29.76 29.76 0 0 1 10.849-2.056c8.965 0 17.381 4.03 23.09 11.056 5.651 6.955 7.835 16 5.991 24.814l-50.554 241.69c-2.935 14.038-15.489 24.228-29.851 24.228zm-.696-29.269c.235.155.449.222.696.222.121 0 1.191-.03 1.422-1.128l50.552-241.69c.057-.272.036-.381-.103-.552-.151-.186-.388-.327-.548-.327a.91.91 0 0 0-.302.074L116.439 245.65l57.173 16.882a14.527 14.527 0 0 1 9.919 10.182l20.171 75.532 39.968-38.142a14.522 14.522 0 0 1 18.943-.957l88.039 68.479z"/><path d="M219.677 360.209c.456 1.476 17.095-19.324 17.272-20.862l-7.463-36.536a13.325 13.325 0 0 1 4.538-12.915l136.798-113.674c3.292-2.913-.532-8.05-4.265-5.737L205.69 268.601a10.706 10.706 0 0 0-4.939 11.161l18.926 80.447z"/></g></symbol><symbol id="vk" viewBox="0 0 512.001 512.001"><g fill="#7a7a7a"><path d="M432.464 512.001h-37.767c-8.02 0-14.523-6.503-14.523-14.523s6.503-14.523 14.523-14.523h37.767c27.839 0 50.49-22.65 50.49-50.49V79.537c0-27.839-22.65-50.49-50.49-50.49H214.367c-8.021 0-14.523-6.503-14.523-14.523S206.346.001 214.367.001h218.098c43.855 0 79.536 35.679 79.536 79.536v352.93c-.001 43.855-35.68 79.534-79.537 79.534zM289.694 512.001H79.536C35.679 512.001 0 476.322 0 432.465V79.537C0 35.68 35.679.001 79.536.001h32.684c8.021 0 14.523 6.503 14.523 14.523s-6.502 14.523-14.523 14.523H79.536c-27.839 0-50.49 22.65-50.49 50.49v352.93c0 27.839 22.65 50.49 50.49 50.49h210.158c8.02 0 14.523 6.503 14.523 14.523s-6.503 14.521-14.523 14.521z"/></g><path d="M409.589 356.56c-11.793 0-26.217-.331-32.376-.471-1.855-.042-3.064-.07-3.394-.071-9.868-.044-18.366-3.427-25.256-10.057-5.59-5.379-11.001-11.261-16.234-16.95-2.963-3.218-6.024-6.547-9.113-9.78-3.114-3.258-6.046-5.92-8.968-8.14-3.791-2.89-7.831-4.421-11.672-4.421-6.352 0-11.584 3.994-14.352 10.959-3.181 8.03-5.622 27.642-5.712 28.852-.392 5.507-3.541 8.338-9.627 8.672-3.991.216-7.908.328-11.64.328-24.047 0-44.348-4.613-62.063-14.103-17.914-9.595-33.977-23.648-49.103-42.961-19.111-24.393-36.321-52.671-55.802-91.685-.935-1.872-15.887-33.75-17.322-37.346-.408-1.675-.63-4.408.787-5.327 1.079-.102 4.364-.276 14.169-.276 16.35 0 40.411.495 41.742.542 6.736.365 10.407 3.016 13.019 9.456 11.412 28.178 25 51.943 41.541 72.648 2.507 3.153 5.782 6.158 9.468 8.683 2.587 1.775 5.362 2.713 8.023 2.713h.001c5.066 0 9.24-3.237 11.165-8.665 2.212-6.174 3.991-17.538 4.1-23.565.289-14.785-.038-24.428-.835-39.227-.745-13.684-7.253-21.859-19.871-24.925 3.838-4.151 9.068-5.214 17.056-5.641 4.472-.241 9.363-.359 14.957-.359 5.199 0 10.515.099 15.656.196 3.612.068 7.222.135 10.831.171 5.956.054 11.117.575 15.79 1.596 2.841.619 6.747 2.232 7.902 9.103.59 3.487.851 6.869.776 10.06-.148 6.546-.369 13.207-.581 19.648-.306 9.261-.624 18.838-.733 28.287-.087 7.333.537 14.092 1.853 20.09 1.74 7.877 6.464 12.576 12.641 12.576 2.595 0 6.575-.919 10.797-5.295 6.688-6.945 13.145-15.026 20.937-26.198 10.166-14.583 18.947-31.592 27.635-53.531 2.916-7.341 3.663-7.857 11.427-7.874 10.189-.026 20.376-.041 30.564-.041 8.94 0 17.882.013 26.823.041 3.409.015 6.161.367 8.412 1.082 1.541.491 2.873 1.205 2.135 4.46-2.722 12.076-9.701 22.623-16.028 31.559-7.687 10.85-15.774 21.737-23.594 32.266a3373.124 3373.124 0 0 0-12.32 16.655c-1.497 2.043-2.935 4.321-4.521 7.166-5.798 10.491-4.878 17.849 3.268 26.261 4.332 4.467 8.833 8.861 13.186 13.107 6.145 5.998 12.501 12.199 18.331 18.577 7.372 8.079 13.862 16.519 19.285 25.081 2.511 3.965 3.23 7.805 1.969 10.531-1.216 2.633-4.335 4.431-8.786 5.063-1.281.176-5.115.48-16.343.48z" fill="#f1f1f1"/><path d="M409.589 371.083c-11.894 0-26.41-.331-32.607-.472-1.767-.041-2.88-.067-3.246-.07-13.517-.061-25.709-4.941-35.242-14.116-5.933-5.711-11.485-11.745-16.853-17.582l-.186-.203c-2.857-3.102-5.809-6.31-8.74-9.378-2.575-2.694-4.949-4.858-7.256-6.611-1.335-1.018-2.314-1.362-2.726-1.439-.202.219-.6.741-1.012 1.781-1.971 4.976-4.271 20.18-4.735 24.692-.967 12.806-9.889 21.234-23.307 21.969-4.265.231-8.445.349-12.435.349-26.502 0-49.046-5.176-68.922-15.824-19.727-10.566-37.285-25.877-53.678-46.807-19.733-25.187-37.425-54.225-57.362-94.151-.847-1.696-16.122-34.201-17.818-38.456a14.525 14.525 0 0 1-.622-1.945c-2.128-8.74.55-16.766 6.991-20.945a14.513 14.513 0 0 1 6.538-2.274c.892-.086 3.605-.341 15.537-.341 16.745 0 40.825.501 42.252.55.091.004.183.007.274.013 12.34.668 20.984 6.891 25.691 18.498 10.881 26.868 23.779 49.45 39.429 69.043 1.185 1.492 2.706 2.986 4.408 4.344 1.316-5.025 2.412-12.545 2.482-16.376.282-14.356-.039-23.75-.816-38.183-.444-8.146-3.191-10.23-8.798-11.592a14.525 14.525 0 0 1-7.234-23.971c7.561-8.177 17.418-9.773 26.945-10.282 4.735-.256 9.883-.381 15.733-.381 5.365 0 10.736.1 15.928.199 3.571.067 7.141.134 10.709.17 6.944.062 13.08.694 18.738 1.929 10.297 2.241 17.272 9.852 19.127 20.881.742 4.386 1.069 8.699.973 12.811-.147 6.496-.363 13.085-.575 19.457l-.012.33c-.306 9.266-.619 18.723-.726 27.974-.07 5.907.386 11.293 1.354 16.031 5.773-6.133 11.514-13.402 18.44-23.334 9.504-13.633 17.779-29.703 26.044-50.57 5.116-12.881 11.165-17.021 24.9-17.05 19.15-.048 38.309-.061 57.462 0 4.922.02 9.092.597 12.763 1.763 9.363 2.985 14.141 11.627 11.902 21.513-3.305 14.671-11.2 26.657-18.34 36.742-7.761 10.955-15.874 21.876-23.718 32.44a3467.749 3467.749 0 0 0-12.34 16.68c-1.131 1.544-2.261 3.34-3.547 5.648-2.826 5.114-2.462 5.49 1.017 9.083 4.197 4.326 8.619 8.643 12.897 12.817 6.328 6.177 12.815 12.509 18.908 19.172 7.953 8.714 14.959 17.83 20.836 27.109 5.201 8.214 6.252 17.105 2.884 24.393-1.939 4.2-7.109 11.528-19.927 13.35-1.925.265-5.904.622-18.382.622zm-107.013-78.938c7.051 0 14.132 2.558 20.479 7.395 3.523 2.678 7.015 5.84 10.661 9.655 3.117 3.263 6.162 6.57 9.107 9.771l.19.208c5.08 5.523 10.326 11.226 15.621 16.323 4.165 4.008 9.154 5.97 15.249 5.998.354.001 1.66.029 3.661.076 6.197.141 20.479.466 32.042.466 2.682 0 4.89-.019 6.697-.046-4.024-5.706-8.564-11.334-13.552-16.797-5.525-6.043-11.71-12.082-17.694-17.922-4.472-4.363-9.039-8.82-13.522-13.443-12.657-13.068-14.471-27.261-5.552-43.397 1.911-3.427 3.657-6.185 5.517-8.725 4.107-5.597 8.242-11.164 12.377-16.732 7.819-10.526 15.832-21.316 23.403-32 3.098-4.376 6.37-9.168 9.02-14.204-15.829-.035-31.673-.02-47.515.017-8.945 22.385-18.086 39.956-28.709 55.192-8.251 11.831-15.155 20.456-22.389 27.967-7.768 8.056-15.846 9.745-21.258 9.745-13.078 0-23.606-9.408-26.823-23.966-1.557-7.096-2.293-14.96-2.194-23.394.11-9.561.428-19.176.736-28.475l.014-.447c.209-6.299.424-12.809.568-19.168a36.274 36.274 0 0 0-.272-5.198c-2.937-.444-6.171-.677-9.81-.709-3.667-.038-7.321-.105-10.974-.174-5.384-.1-10.998-.209-16.356-.192 1.892 4.63 3.019 9.854 3.333 15.611.816 15.162 1.152 25.058.853 40.299-.132 7.296-2.152 20.375-4.948 28.179-3.997 11.264-13.52 18.289-24.837 18.289-5.607 0-11.223-1.818-16.24-5.259-4.858-3.329-9.225-7.349-12.622-11.623-17.406-21.791-31.685-46.737-43.632-76.233a17.79 17.79 0 0 0-.167-.394l-.036-.003c-2.212-.061-20.973-.437-36.019-.514 4.425 9.524 9.559 20.46 10.291 21.943 19.021 38.091 35.749 65.605 54.232 89.197 13.858 17.695 28.423 30.488 44.528 39.115 15.553 8.332 33.611 12.382 55.205 12.382 2.373 0 4.833-.048 7.35-.145.951-7.145 3.064-20.804 6.127-28.532 5.018-12.614 15.43-20.136 27.86-20.136z" fill="#7a7a7a"/></symbol></svg>