<svg xmlns="http://www.w3.org/2000/svg" style="display:none"><symbol id="about" viewBox="-35 1 511 511.999"><path d="M271.05 180c5.52 0 10-4.48 10-10s-4.48-10-10-10c-5.53 0-10 4.48-10 10s4.47 10 10 10zm0 0M171.05 180c5.52 0 10-4.48 10-10s-4.48-10-10-10c-5.53 0-10 4.48-10 10s4.47 10 10 10zm0 0M194.316 248.734c8.395 3.957 17.391 5.965 26.73 5.965 9.138 0 17.958-1.926 26.22-5.722 5.02-2.309 7.214-8.247 4.91-13.266-2.309-5.016-8.246-7.215-13.266-4.906a42.502 42.502 0 0 1-17.863 3.894c-6.371 0-12.496-1.363-18.203-4.054-4.996-2.356-10.957-.215-13.309 4.78-2.355 4.997-.215 10.954 4.781 13.31zm0 0"/><path d="M441.59 405.77c0-54.989-62.625-98.114-116.305-100.157l-27.387-24.605C331.254 256.672 351.5 217.562 351.5 176v-66c0-60.652-49.504-110-110.352-110h-40C140.383 0 91.5 49.172 91.5 110v66c0 41.492 19.977 80.527 52.898 104.82l-27.593 24.793C63.242 307.653.5 350.668.5 405.77V502c0 5.523 4.477 10 10 10h421.09c5.523 0 10-4.477 10-10zM198.895 446h44.246l10.484 46h-65.52zM244 426h-45.738l-7.672-23.902 30.46-15.23 31.114 15.562zm-22.953-69.18l-34.75-55.59a130.176 130.176 0 0 0 34.851 4.766c11.727 0 23.368-1.598 34.594-4.684zm14.312 14.844l48.012-76.824 25.895 23.265-32.95 74.043zM201.15 20h40c49.82 0 90.351 40.371 90.351 90v8.266l-18.777-27.04a10 10 0 0 0-15.364-1.288C277.031 110.727 253.496 120 221.051 120c-32.442 0-55.98-9.273-76.324-30.063a9.994 9.994 0 0 0-8.024-2.968 9.989 9.989 0 0 0-7.383 4.324l-17.82 26.113V110c0-49.629 40.215-90 89.648-90zM111.5 176v-23.113l27.773-40.7C161.523 131.113 187.816 140 221.051 140c33.27 0 59.582-8.906 81.836-27.871l28.613 41.203V176c0 59.887-48.95 110-110.352 110-61.203 0-109.648-49.957-109.648-110zm47.219 118.844l48.02 76.82-40.966 20.484-32.949-74.043zM20.5 405.77c0-41.196 50.078-76.766 93.84-80l37.414 84.066c1.11 2.492 3.191 4.426 5.762 5.348s5.402.75 7.847-.47l7.125-3.566 8.114 25.266L167.562 492H20.5zM421.59 492H274.137l-12.633-55.434 8.7-25.117 6.523 3.266a10.003 10.003 0 0 0 13.609-4.88l37.414-84.065c43.762 3.238 93.84 38.804 93.84 80zm0 0"/><path d="M351.05 446h-40c-5.523 0-10 4.477-10 10s4.477 10 10 10h40c5.524 0 10-4.477 10-10s-4.476-10-10-10zm0 0M390.5 446c5.52 0 10 4.48 10 10s-4.48 10-10 10-10-4.48-10-10 4.48-10 10-10zm0 0"/></symbol><symbol id="profile" viewBox="-24 0 496 496"><path d="M16 48h240v56c0 4.426 3.574 8 8 8h56v64h16v-72a7.986 7.986 0 0 0-2.352-5.664l-63.976-63.977A7.992 7.992 0 0 0 264 32H48V16h304v176h16V8c0-4.426-3.574-8-8-8H40a7.99 7.99 0 0 0-8 8v24H8a7.99 7.99 0 0 0-8 8v448c0 4.426 3.574 8 8 8h272v-16H16zm256 11.313L308.688 96H272zm0 0"/><path d="M440 240h-12.047c-35.723 0-69.32-15.734-92.183-43.168l-1.618-1.945c-3.03-3.657-9.265-3.657-12.297 0l-1.617 1.937C297.368 224.266 263.77 240 228.047 240H216a7.99 7.99 0 0 0-8 8v129.566c0 31.504 16.992 60.786 44.344 76.41l71.687 40.97a7.988 7.988 0 0 0 7.938 0l71.687-40.97C431.008 438.353 448 409.07 448 377.567V248c0-4.426-3.574-8-8-8zm-8 137.566c0 25.778-13.895 49.73-36.281 62.512L328 478.793l-67.719-38.703C237.895 427.297 224 403.344 224 377.566V256h4.047c38.176 0 74.226-15.863 99.953-43.77 25.719 27.907 61.777 43.77 99.953 43.77H432zm0 0"/><path d="M328 264c-48.52 0-88 39.48-88 88s39.48 88 88 88 88-39.48 88-88-39.48-88-88-88zm0 160c-39.703 0-72-32.297-72-72s32.297-72 72-72 72 32.297 72 72-32.297 72-72 72zm0 0"/><path d="M324.184 376.871l-14.528-14.527-11.312 11.312 24 24A7.98 7.98 0 0 0 328 400c.648 0 1.305-.078 1.953-.238a8.028 8.028 0 0 0 5.711-5.465l24-80-15.328-4.594zm0 0M32 128h208v16H32zm0 0M32 160h208v16H32zm0 0M32 192h208v16H32zm0 0M32 224h160v16H32zm0 0M32 256h160v16H32zm0 0M32 288h160v16H32zm0 0M32 384h160v16H32zm0 0M32 416h160v16H32zm0 0M32 448h160v16H32zm0 0M40 64h16v16H40zm0 0M72 64h16v16H72zm0 0M104 64h16v16h-16zm0 0M136 64h104v16H136zm0 0"/></symbol><symbol id="skills" viewBox="0 0 496.941 496.941"><path d="M146.824 133.647H54.965C24.847 133.647 0 161.506 0 196.141v156.612c0 4.518 3.012 7.529 7.529 7.529h32.376v110.682c0 14.306 11.294 25.6 25.6 25.6h71.529c14.306 0 25.6-11.294 25.6-25.6V361.035h32.376c4.518 0 7.529-3.012 7.529-7.529V196.141c.002-34.635-24.845-62.494-55.715-62.494zm40.658 212.329h-24.847v-79.812c0-4.518-3.012-7.529-7.529-7.529s-7.529 3.012-7.529 7.529v205.553c0 6.023-4.518 10.541-10.541 10.541h-28.612V358.776c0-4.518-3.012-7.529-7.529-7.529s-7.529 3.012-7.529 7.529v123.482h-27.86c-6.023 0-10.541-4.518-10.541-10.541V266.165c0-4.518-3.012-7.529-7.529-7.529s-7.529 3.012-7.529 7.529v79.812H15.059V196.141c0-26.353 18.071-47.435 39.906-47.435h91.859c22.588 0 40.659 21.082 40.659 47.435v149.835zM100.894 123.859c33.882 0 61.741-27.859 61.741-61.741S134.776.377 100.894.377 39.906 28.236 39.906 62.118s27.106 61.741 60.988 61.741zm0-108.424c25.6 0 46.682 21.082 46.682 46.682s-21.082 46.682-46.682 46.682-46.682-21.082-46.682-46.682c.753-25.599 21.082-46.682 46.682-46.682zM408.847 217.224c3.765 21.082 21.835 36.894 43.671 36.894 24.847 0 44.424-19.576 44.424-44.424 0-24.847-20.329-44.424-44.424-44.424-21.835 0-39.906 15.812-43.671 36.894h-82.824V98.259h82.824c3.765 21.082 21.835 36.894 43.671 36.894 24.847 0 44.424-19.576 44.424-44.424 0-24.847-20.329-44.424-44.424-44.424-21.835 0-39.906 15.812-43.671 36.894h-90.353c-4.518 0-7.529 3.012-7.529 7.529v170.165h-30.871v-81.318c0-4.518-3.012-7.529-7.529-7.529H225.13c-4.518 0-7.529 3.012-7.529 7.529 0 4.518 3.012 7.529 7.529 7.529h39.906v162.635H225.13c-4.518 0-7.529 3.012-7.529 7.529s3.012 7.529 7.529 7.529h47.435c4.518 0 7.529-3.012 7.529-7.529V275.95h30.871v170.918c0 4.518 3.012 7.529 7.529 7.529h90.353c3.765 21.082 21.835 36.894 43.671 36.894 24.847 0 44.424-19.576 44.424-44.424s-20.329-44.424-44.424-44.424c-21.835 0-39.906 15.812-43.671 36.894h-82.824V335.435h82.824c3.765 21.082 21.835 36.894 43.671 36.894 24.847 0 44.424-19.576 44.424-44.424 0-24.847-20.329-44.424-44.424-44.424-21.835 0-39.906 15.812-43.671 36.894h-82.824V217.224h82.824zm43.671-36.895c16.565 0 29.365 12.8 29.365 29.365s-13.553 29.365-29.365 29.365c-16.565 0-29.365-12.8-29.365-29.365s12.8-29.365 29.365-29.365zm0-118.964c16.565 0 29.365 12.8 29.365 29.365 0 16.565-13.553 29.365-29.365 29.365-16.565 0-29.365-12.8-29.365-29.365 0-16.565 12.8-29.365 29.365-29.365zm0 356.141c16.565 0 29.365 12.8 29.365 29.365s-13.553 29.365-29.365 29.365c-16.565 0-29.365-12.8-29.365-29.365s12.8-29.365 29.365-29.365zm0-118.965c16.565 0 29.365 12.8 29.365 29.365s-13.553 29.365-29.365 29.365c-16.565 0-29.365-12.8-29.365-29.365s12.8-29.365 29.365-29.365z"/></symbol><symbol id="suitcase" viewBox="0 -40 512 512"><path d="M462.133 82.414h-76.848V60.848c0-11.7-9.52-21.22-21.219-21.22h-12.894v-4.636C351.172 15.7 335.472 0 316.176 0H195.82c-19.293 0-34.992 15.7-34.992 34.992v4.637h-12.855c-11.7 0-21.22 9.52-21.22 21.219v21.566H49.868C22.371 82.414 0 104.785 0 132.281v248.313c0 28.554 23.23 51.785 51.785 51.785h408.43c28.555 0 51.785-23.23 51.785-51.785V132.28c0-27.496-22.371-49.867-49.867-49.867zm-96.848-21.566V82.41H317.06V60.848a1.22 1.22 0 0 1 1.218-1.22h45.79a1.22 1.22 0 0 1 1.218 1.22zM180.828 34.992c0-8.265 6.727-14.992 14.992-14.992h120.356c8.27 0 14.996 6.727 14.996 14.992v4.637h-12.899c-11.699 0-21.218 9.52-21.218 21.219v21.566H214.98V60.848c0-11.7-9.515-21.22-21.218-21.22h-12.938v-4.636zm-34.074 25.856c0-.672.547-1.22 1.223-1.22h45.789a1.22 1.22 0 0 1 1.218 1.22V82.41h-48.23zm313.46 351.53H51.786C34.258 412.379 20 398.122 20 380.595v-157.13l174.984 54.071v12.145c0 11.55 5.477 22.64 14.649 29.66l27.172 20.8A31.538 31.538 0 0 0 256 346.63c6.77 0 13.543-2.164 19.195-6.488l27.172-20.801c9.172-7.02 14.649-18.11 14.649-29.66v-12.14l54.62-16.884c5.278-1.629 8.235-7.226 6.606-12.504-1.633-5.277-7.23-8.234-12.508-6.605l-48.718 15.055v-7.176c0-15.446-12.567-28.008-28.008-28.008h-66.02c-15.441 0-28.008 12.562-28.008 28.008v7.18L20 202.53v-70.25c0-16.468 13.398-29.867 29.867-29.867h412.266c16.469 0 29.867 13.399 29.867 29.867v70.25l-45.285 13.992c-5.278 1.633-8.23 7.23-6.602 12.508 1.63 5.278 7.227 8.235 12.504 6.602L492 223.465v157.129c0 17.527-14.258 31.785-31.785 31.785zM297.017 289.68c0 5.367-2.543 10.515-6.805 13.78l-27.172 20.798c-4.144 3.176-9.934 3.172-14.078 0l-27.172-20.797c-4.262-3.266-6.805-8.414-6.805-13.781v-19.285c.004-.153 0-.305 0-.454v-20.515c0-4.414 3.59-8.008 8.008-8.008h66.016c4.418 0 8.008 3.594 8.008 8.008zm0 0"/><path d="M408.738 228.727c-5.52 0-10 4.476-10 10 0 5.52 4.48 10 10 10h.028c5.52 0 9.988-4.48 9.988-10 0-5.524-4.492-10-10.016-10zm0 0"/></symbol></svg>